<svg xmlns="http://www.w3.org/2000/svg" viewBox="0 0 201.66 52.85"><title>アセット 1</title><g id="レイヤー_2" data-name="レイヤー 2"><g id="レイヤー_1-2" data-name="レイヤー 1"><path d="M59.67,15.28A14.1,14.1,0,0,0,50,3.27C47.11,2.14,43.63,2,38.46,1.83l-11.36,0c-.32,0-.55,0-.63.12s.46.48.78.68A2.9,2.9,0,0,1,28.4,3.79a6.14,6.14,0,0,1,.5,2.65c.38,5.79.41,20.27.41,21.86,0,2.88-.15,17.42-1,19.49a4.57,4.57,0,0,1-.32.7c-.29.44-.14.54.05.59,0,0,6.38,0,6.68,0,0,0,.61,0,.18-.61a4.46,4.46,0,0,1-.34-.92,11.25,11.25,0,0,1-.27-2.07c-.18-5.13-.11-12.84,0-13.59s.44-.73,2.61-.72,4,.06,6.48,0C54,30.82,60.31,24.77,59.67,15.28ZM41.82,28.58a49.49,49.49,0,0,1-6.56,0c-1,0-1-.37-1.08-1.66-.07-1.07,0-18.45,0-18.45l.1-3.12c0-1.07.35-1.31.88-1.39a38.85,38.85,0,0,1,6.31.1c8.11.54,12.35,5.52,12.88,12.18C54.37,26,48.17,28.32,41.82,28.58Z"/><path d="M128.19,48.83a4.56,4.56,0,0,1-6.39.2c-3.16-2.47-11-14.38-11-14.38S107.74,30,107.12,29c-.39-.63-.47-.85.4-1.4A14.63,14.63,0,0,0,114.13,20a14.31,14.31,0,0,0-.71-10.55c-2-3.62-5.15-7.43-14.73-7.56l-12.93,0c-.37,0-.46.2-.22.37,1.86,1.25,2.93,1.22,3.09,9.06.07,2.83.1,16.09.12,18,0,.79-.09,5-.11,7.27,0,3.7,0,4.17-.09,5.22s-.15,2.67-.32,4.89c-.14.88-.4.83-.67.3-.36-.71-3-8.23-3-8.23l-5.24-14L70.69.52c-.23-.71-1-.71-1.23.12-.24.66-4.27,12-4.27,12s-2.1,5.36-3,7.73-5.08,13-6.2,15.68-2.29,5.7-3.71,9.1l-.4,1s-.32.71-.66,1.37a3.58,3.58,0,0,1-1,1.25c-.12.09-.09.32.2.29h5.41c.33,0,.31-.14.21-.31a2.7,2.7,0,0,1-.19-2C56,46.18,56.4,45,57,43.49c.66-1.75,1.35-3.51,1.45-3.81.18-.52,1.66-4.58,2.28-6.16s.76-2.16,1.54-2.18c4.47-.07,7.63-.07,12.92,0,1.2,0,1.48.18,1.69.77,1,2.89,4,12,4.44,13.36s.45,1.94.21,2.64a1.63,1.63,0,0,1-.31.57c-.14.22,0,.36.12.36l13.68,0c.8,0,0-.75.23-.45a6.75,6.75,0,0,1-1.3-3.86c-.17-2.7-.17-14.15-.1-15.27,0-.39.17-.56.6-.59a19.13,19.13,0,0,1,4.2.14,7.12,7.12,0,0,1,4.5,2.73c1.06,1.64,4.56,6.67,6,8.7.8,1.15,3.86,5.32,4.62,6.3,1.44,1.85,2.41,3.34,4.38,4.59a8.44,8.44,0,0,0,8.5.63,5.61,5.61,0,0,0,2.3-2.14C129.33,48.92,128.75,48.32,128.19,48.83Zm-54-19.7A86.88,86.88,0,0,1,63.53,29c-.77-.08-1.13-.12-.73-1.21,2-5.44,4.39-11.76,6-15.63.45-1.11.79-1.11,1.19,0,2.54,7.2,5.09,14.61,5.44,15.7S75.43,29.06,74.23,29.13Zm20.94-2.86c-1.4-.07-1.4,0-1.4-1.41V11c0-1.83,0-3.93.09-5,.08-1.77.07-1.89.84-1.9,1.56-.08,2.22,0,3.53,0C103.11,4,110,6.67,110,15.75c-.17,3.46-1.68,7-4.58,8.67C103.13,25.75,100.44,26.51,95.17,26.27Z"/><path d="M156.3,41.24c-.14-.66-.3-1.05-1.07,0a17,17,0,0,1-23,2.87c-5.61-3.86-10.43-13.77-9.46-22.86.73-6.74,4.33-12.66,10.89-15.73A17.62,17.62,0,0,1,152,7.86c.54.41.67.23.7-.42l.06-4.09c0-.82-.31-.8-.87-.92-6.22-1.35-9.41-1.59-13-1.07-5.44.93-9.78,2.71-13.47,6.09a24.33,24.33,0,0,0-8.25,19.77,23.89,23.89,0,0,0,15.44,21.13c9.26,3.72,18.2.73,23.39-2.69.8-.53.83-.67.7-1.39Z"/><path d="M194.33,8A25.45,25.45,0,0,0,176.66.52,24.1,24.1,0,0,0,158.5,9.08c-2.84,3.53-5.49,8.28-5.71,16.22a25.37,25.37,0,0,0,23.87,25.57c8.25.3,14.49-2.93,18.72-7.94,5.33-6.31,6-11.78,6.27-17.1A25.81,25.81,0,0,0,194.33,8Zm-2.26,33.5c-4.66,6.23-11.92,6.62-14.65,6.52-4-.51-7.07-1.65-11.17-5.28a25.75,25.75,0,0,1-8.2-16.89c-.36-4.42.36-9.69,2.55-13.6a17.64,17.64,0,0,1,14.87-8.86A18.45,18.45,0,0,1,189,9.26c4.16,4.08,7.09,11,7.38,17.54S195.56,36.94,192.07,41.48Z"/><path d="M6.68,6.18a16.66,16.66,0,0,1,2.5,1.6A19.79,19.79,0,0,0,12.6,5H7.34a21.18,21.18,0,0,1-5.4,3.33A4.26,4.26,0,0,0,.58,7c3.28-1.28,5.92-3.2,7.1-5.17L10,2.29c-.52.6-.7.8-1,1.16h4.1a12.69,12.69,0,0,0,1.76-.08l1.18,1-.72.74a25.22,25.22,0,0,1-6,4.63h6.48a14.61,14.61,0,0,0,1.68-.07,7.75,7.75,0,0,0-.1,1.47v4.12a8.53,8.53,0,0,0,.12,1.58H15.2V16H7.56v.86H5.24a9.67,9.67,0,0,0,.12-1.58V11.79a34.33,34.33,0,0,1-3.8,1.44,4.53,4.53,0,0,0-1.28-1.6A31.75,31.75,0,0,0,5.08,10c.64-.29,1.3-.62,2.38-1.2A14.37,14.37,0,0,0,5,7.12Zm.86,8.29h7.68V11.31H7.54Z"/><path d="M8.18,19.5a5.66,5.66,0,0,0-.12-1.45h2.62a7,7,0,0,0-.12,1.45v1.2H16.1c.92,0,1.72,0,2.38-.09v1.9c-.76-.06-1.56-.09-2.38-.09H10.56v2.75h4.1a15.84,15.84,0,0,0,1.8-.07,8.08,8.08,0,0,0-.1,1.51V31a10.15,10.15,0,0,0,.12,1.78h-2.4V32H5v.83H2.6A11.14,11.14,0,0,0,2.72,31v-4.4a8.34,8.34,0,0,0-.1-1.51,17,17,0,0,0,1.82.07H8.18V22.42H3q-1.38,0-2.4.09v-1.9c.66.06,1.48.09,2.4.09H8.18ZM5,30.29h9V26.85H5Z"/><path d="M9.66,43.22l-1.58.06c-2.06.1-3,.15-3.32.19l-.3-1.55c.46,0,.52,0,.88,0h1.5a8.75,8.75,0,0,0,1-1.32H4.08a21.63,21.63,0,0,1-.68,4.56,9.73,9.73,0,0,1-1.62,3.57A8.78,8.78,0,0,0,0,47.3a7.76,7.76,0,0,0,1.46-3.14,32.12,32.12,0,0,0,.66-7.86A11.25,11.25,0,0,0,2,34.48a22.53,22.53,0,0,0,2.62.09h11a18.79,18.79,0,0,0,2.2-.08,8.73,8.73,0,0,0-.06,1.28v1.51a6.6,6.6,0,0,0,.06,1.15c-.74,0-1.3,0-2.14,0H4.16l0,.85H15.86a18.14,18.14,0,0,0,2.32-.08v1.56a17.31,17.31,0,0,0-2.12-.08h-1.3c.76.56,1.66,1.29,3,2.49L16,44l-1-1-3.14.19v1.31h3.58a16.66,16.66,0,0,0,2-.06v1.54c-.64,0-1.16-.07-2-.07H11.8V47h4.4a18.3,18.3,0,0,0,2.42-.08v1.62a21.6,21.6,0,0,0-2.66-.1H5.76a23.12,23.12,0,0,0-2.52.1V46.93A18,18,0,0,0,5.56,47h4.1V45.84h-3c-.9,0-1.44,0-2.06.07V44.37a19.52,19.52,0,0,0,2.08.06H9.66Zm6-6.21V36H4.18v1ZM10,40.63a13.42,13.42,0,0,1-1,1.29c1.6-.05,2.62-.06,3-.09l1.5-.08A12.47,12.47,0,0,0,12.54,41l.92-.35Z"/></g></g></svg>